<svg id="Layer_1" data-name="Layer 1" xmlns="http://www.w3.org/2000/svg" viewBox="0 0 121.82 30.6"><defs><style>.cls-1{fill:#7d3f98;}</style></defs><title>Aetna_Logo_ss_Violet_RGB_Coated</title><path class="cls-1" d="M390.76,315.44l.32,5.28a20.64,20.64,0,0,1-5.08.55c-5.27,0-8.08-2.22-8.08-7.63,0-4.24.08-8.9.12-11.45h-2.73c0-1.15,0-2.8,0-4,4.1-.68,5.39-3,6-7.48h4.51c-.16,1.85-.3,4.53-.3,6.35h4.79v5.13h-4.86v9.24c0,3.58.72,4.56,3.19,4.56A4.38,4.38,0,0,0,390.76,315.44Zm25.16-5.73c0-2,0-4.68,0-4.68,0-6-2.63-8.71-10.08-8.71-4.18,0-7.16.73-11.83.73.26,4.22.27,9.43.25,12.65s-.11,9.16-.25,11.06h8c-.18-1.9-.35-7.37-.32-11.06,0-2.1,0-4.64.11-8.05a9.09,9.09,0,0,1,2.91-.48c2.8,0,3.7,1.31,3.7,4.93,0,0,0,2.27,0,3.6,0,3.28-.11,9.16-.25,11.06h8C416.06,318.86,415.9,313.39,415.92,309.7Zm-53.52,1.05c-.86,0-2.32,0-3.06-.06v.16c0,3.4,2.23,5.55,6.36,5.55a12.94,12.94,0,0,0,6.39-1.72l.29,5.31a21.25,21.25,0,0,1-7.88,1.29c-8.39,0-12.42-2.87-13.12-10.65-1,0-2.4-.1-4.37-.11-.05,1.37-.1,2.58-.1,3.59a44.44,44.44,0,0,0,.35,6.64c-4.6,0-8.16.51-11.78.51-6.85,0-9.26-2.84-9.26-7.68s3.87-7.23,12.23-7.23h1.15v-.5c0-3.32-1-4.71-4.38-4.71a14.88,14.88,0,0,0-6.57,1.75l-.28-5.3A24.83,24.83,0,0,1,337,296.3c7.33,0,10.09,2.41,10.09,9.06,0,.37,0,.73,0,1.08,1.79,0,3.1,0,4.3.11.74-6.56,4-10.23,12.23-10.23,6.78,0,9.9,2.85,9.9,7.14C373.56,308.45,369.77,310.76,362.4,310.76Zm-22.87,5.62c-.12-1.61-.07-3.94-.05-5.93-.28,0-.67,0-1,0-3.48,0-4.87,1.17-4.87,3.23s1.09,3,3.64,3A9.57,9.57,0,0,0,339.53,316.38Zm22-9.66c3.22,0,4.76-1.08,4.76-3.4,0-1.65-1.12-2.55-2.85-2.55-3.05,0-4.11,2.44-4.11,5.77v.12C359.91,306.71,360.73,306.72,361.5,306.72Zm78.53,14c-4.6,0-8.16.51-11.78.51-6.85,0-9.26-2.84-9.26-7.68s3.86-7.23,12.23-7.23h1.15v-.5c0-3.32-1-4.71-4.38-4.71a14.88,14.88,0,0,0-6.57,1.75l-.28-5.3a24.81,24.81,0,0,1,8.68-1.32c7.34,0,10.09,2.41,10.09,9.06,0,3.56-.23,6.61-.23,8.76A44.44,44.44,0,0,0,440,320.76Zm-7.72-4.38c-.12-1.61-.07-3.94-.05-5.93-.28,0-.67,0-1,0-3.48,0-4.87,1.17-4.87,3.23s1.09,3,3.64,3A9.56,9.56,0,0,0,432.31,316.38Z" transform="translate(-326.22 -290.7)"/><path class="cls-1" d="M442.59,301.45a3.2,3.2,0,0,1-.61-1.06,3.83,3.83,0,0,1-.21-1.28,3.72,3.72,0,0,1,.22-1.28,3.12,3.12,0,0,1,.62-1,3,3,0,0,1,1-.71,3.41,3.41,0,0,1,2.63,0,2.92,2.92,0,0,1,1,.71,3.17,3.17,0,0,1,.62,1,3.69,3.69,0,0,1,.22,1.28,3.74,3.74,0,0,1-.22,1.28,3.19,3.19,0,0,1-.62,1.06,3,3,0,0,1-1,.71,3.41,3.41,0,0,1-2.63,0A2.92,2.92,0,0,1,442.59,301.45Zm1.22.22a2.55,2.55,0,0,0,1.09.23,2.46,2.46,0,0,0,1.09-.23,2.42,2.42,0,0,0,.8-.61,2.67,2.67,0,0,0,.5-.89,3.29,3.29,0,0,0,.17-1.05,3.26,3.26,0,0,0-.17-1,2.67,2.67,0,0,0-.5-.88,2.38,2.38,0,0,0-.8-.61,2.72,2.72,0,0,0-2.17,0,2.4,2.4,0,0,0-.8.61,2.67,2.67,0,0,0-.5.88,3.26,3.26,0,0,0-.17,1,3.09,3.09,0,0,0,.37,1.52A2.5,2.5,0,0,0,443.81,301.67Zm-.07-4.56.57,0h.5a1.73,1.73,0,0,1,1.19.33,1.1,1.1,0,0,1,.36.84,1.31,1.31,0,0,1-.07.45,1.16,1.16,0,0,1-.2.35,1.11,1.11,0,0,1-.29.25,1.07,1.07,0,0,1-.34.14h0l1,1.61a.61.61,0,0,1-.17.07l-.16,0a.63.63,0,0,1-.27-.06.53.53,0,0,1-.22-.22l-.8-1.33h-.49v1.56h-.59Zm1.19,1.83c.54,0,.81-.23.81-.7a.55.55,0,0,0-.21-.47,1.16,1.16,0,0,0-.69-.16h-.29l-.23,0h0v1.3Z" transform="translate(-326.22 -290.7)"/></svg>